Coordinates
version=1
nRows=13
nColumns=22
inDegrees=yes

Units are S.I. units (second, meters, Newtons, ...)
If the header above contains a line with 'inDegrees', this indicates whether rotational values are in degrees (yes) or radians (no).

endheader
time	pelvis_tilt	pelvis_list	pelvis_rotation	pelvis_tx	pelvis_ty	pelvis_tz	hip_flexion_r	hip_adduction_r	hip_rotation_r	knee_angle_r	ankle_angle_r	subtalar_angle_r	hip_flexion_l	hip_adduction_l	hip_rotation_l	knee_angle_l	ankle_angle_l	subtalar_angle_l	lumbar_extension	lumbar_bending	lumbar_rotation
      2.47000000	     -1.78611436	      8.91636999	    -46.13282248	      0.00705242	      0.97111896	      0.12755729	     36.71916062	     -5.97303280	     -6.15257718	    -56.22959081	     13.02885750	     -7.70850506	     17.48848352	      5.90783140	     -1.33635958	    -25.26805153	     20.80192554	      0.02260858	     -2.99215730	     -3.52221241	     -1.46582752
      2.48000000	     -1.62826321	      8.93984877	    -46.43410413	      0.01322602	      0.97102621	      0.13329229	     37.23195198	     -6.18338852	     -7.04571461	    -54.09542895	     13.39529327	     -7.76272480	     16.61916015	      6.03155486	     -1.62635678	    -24.84621315	     21.19775130	     -0.08527853	     -3.08121067	     -3.58741300	     -1.66876654
      2.49000000	     -1.48737832	      8.96633004	    -46.74005167	      0.01931298	      0.97077871	      0.13912578	     37.70319698	     -6.35741223	     -7.96016049	    -51.89222614	     13.67668488	     -7.81461440	     15.78280177	      6.14060446	     -1.93391269	    -24.45861084	     21.61421084	     -0.21040704	     -3.15067354	     -3.64517131	     -1.82479119
      2.50000000	     -1.33949515	      8.98389544	    -47.07783442	      0.02531862	      0.97045893	      0.14512102	     38.10610810	     -6.46763956	     -8.82875656	    -49.61894249	     13.82515975	     -7.86052814	     14.91363368	      6.24631551	     -2.23550110	    -24.03610483	     22.01739855	     -0.36718390	     -3.22561613	     -3.70218203	     -1.92826808
      2.51000000	     -1.20552764	      9.00472929	    -47.42317235	      0.03124213	      0.96998499	      0.15126275	     38.47177702	     -6.52526729	     -9.69122154	    -47.30432759	     13.89599294	     -7.84298945	     14.07595537	      6.33482610	     -2.58737774	    -23.65450449	     22.45808686	     -0.51874012	     -3.27909895	     -3.75787272	     -1.99478963
      2.52000000	     -1.03882477	      9.02149248	    -47.80005776	      0.03710618	      0.96946709	      0.15759195	     38.76571240	     -6.53773610	    -10.48855643	    -44.95228354	     13.84586130	     -7.76725228	     13.17917677	      6.44954010	     -2.92685499	    -23.22026394	     22.84150154	     -0.68331277	     -3.35118932	     -3.84395706	     -1.99741338
      2.53000000	     -0.89350431	      9.04715751	    -48.18903950	      0.04288555	      0.96879614	      0.16407312	     39.03907009	     -6.47780326	    -11.22555626	    -42.57557511	     13.68152618	     -7.59026159	     12.31271989	      6.54866069	     -3.30846837	    -22.80604346	     23.25430586	     -0.82116761	     -3.39085280	     -3.92301426	     -1.96871840
      2.54000000	     -0.74547526	      9.08130782	    -48.59351532	      0.04858453	      0.96801433	      0.17071373	     39.27963445	     -6.36124508	    -11.87722379	    -40.18586740	     13.39977799	     -7.30281161	     11.44321798	      6.65554085	     -3.70599969	    -22.38181609	     23.65694646	     -0.93608388	     -3.41903973	     -4.02011247	     -1.91400870
      2.55000000	     -0.62963935	      9.15042130	    -49.00079425	      0.05421147	      0.96703919	      0.17745988	     39.53954118	     -6.19246123	    -12.44665669	    -37.80052697	     12.97522113	     -6.94180171	     10.64469737	      6.75664965	     -4.15742692	    -21.99706052	     24.05035277	     -1.02083450	     -3.38583872	     -4.11613243	     -1.84123945
      2.56000000	     -0.48296283	      9.20644926	    -49.41357369	      0.05985260	      0.96601953	      0.18435276	     39.72811609	     -6.00524773	    -12.95133780	    -35.43083396	     12.57094960	     -6.41403880	      9.78554776	      6.88859504	     -4.56131146	    -21.56872626	     24.42986291	     -1.07868025	     -3.37736021	     -4.22985866	     -1.72393535
      2.57000000	     -0.36125296	      9.30223443	    -49.81175429	      0.06545421	      0.96481825	      0.19131382	     39.93866699	     -5.79815277	    -13.37085953	    -33.09281258	     12.08835646	     -5.80944344	      9.00022493	      7.02970354	     -4.98641415	    -21.18556708	     24.79943022	     -1.10716430	     -3.31309186	     -4.35030715	     -1.63477124
      2.58000000	     -0.25120220	      9.41950996	    -50.19253756	      0.07104725	      0.96348339	      0.19836216	     40.14548189	     -5.58735035	    -13.73793461	    -30.80205018	     11.60572889	     -5.14065060	      8.25595843	      7.18036156	     -5.40231616	    -20.83649029	     25.15626659	     -1.10804924	     -3.21740296	     -4.47575370	     -1.55762938
      2.59000000	     -0.16641992	      9.55827190	    -50.54936362	      0.07665390	      0.96200938	      0.20548795	     40.35553425	     -5.37398372	    -14.06266697	    -28.56751893	     11.16197667	     -4.48357861	      7.56835266	      7.32847596	     -5.80286964	    -20.53527505	     25.50907840	     -1.09115351	     -3.07900424	     -4.58879468	     -1.48936249
